<?xml version="1.0" encoding="UTF-8"?>
<svg width="2003px" height="403px" viewBox="0 0 2003 403" version="1.1" xmlns="http://www.w3.org/2000/svg" xmlns:xlink="http://www.w3.org/1999/xlink" xmlns:sketch="http://www.bohemiancoding.com/sketch/ns">
    <defs></defs>
    <g id="Page-1" stroke="none" stroke-width="1" fill="none" fill-rule="evenodd" sketch:type="MSPage">
        <g id="Group" sketch:type="MSLayerGroup" transform="translate(176.000000, 210.000000) scale(-1, 1) rotate(-19.000000) translate(-176.000000, -210.000000) translate(-16.000000, -45.000000)">
            <polygon id="Triangle-1" fill="#60B5CC" sketch:type="MSShapeGroup" transform="translate(256.000000, 302.000000) scale(1, -1) translate(-256.000000, -302.000000) " points="256 238 384 366 128 366 "></polygon>
            <polygon id="Triangle-2" fill="#5A6378" sketch:type="MSShapeGroup" transform="translate(167.000000, 373.264502) scale(1, -1) rotate(-45.000000) translate(-167.000000, -373.264502) " points="167 309.264502 295 437.264502 39 437.264502 "></polygon>
            <polygon id="Triangle-3" fill="#60B5CC" sketch:type="MSShapeGroup" transform="translate(72.500000, 328.000000) rotate(-90.000000) translate(-72.500000, -328.000000) " points="72.5 283 163 373 -18 373 "></polygon>
            <polygon id="Triangle-4" fill="#F0AD00" sketch:type="MSShapeGroup" transform="translate(68.000000, 68.000000) scale(-1, -1) rotate(-45.000000) translate(-68.000000, -68.000000) " points="68 36 132 100 4 100 "></polygon>
            <rect id="Rectangle-1" fill="#7FD13B" sketch:type="MSShapeGroup" transform="translate(91.730195, 194.160913) rotate(-45.000000) translate(-91.730195, -194.160913) " x="46.4301948" y="148.860913" width="90.6" height="90.6"></rect>
            <polygon id="Triangle-5" fill="#F0AD00" sketch:type="MSShapeGroup" transform="translate(57.000000, 261.000000) scale(-1, -1) rotate(-90.000000) translate(-57.000000, -261.000000) " points="57 229 121 293 -7 293 "></polygon>
            <path d="M94.5,127.117749 L94,127.617749 L222,127.617749 L158.5,64.117749 L159,63.617749 L31,63.617749 L94.5,127.117749 Z" id="Triangle-6" fill="#7FD13B" sketch:type="MSShapeGroup" transform="translate(126.500000, 95.617749) scale(1, -1) rotate(-90.000000) translate(-126.500000, -95.617749) "></path>
        </g>
        <path d="M617.796875,52.5703125 L617.796875,106.671875 L661.546875,106.671875 L661.546875,125.8125 L617.796875,125.8125 L617.796875,266.632812 C617.796875,278.351621 619.912739,287.075492 624.144531,292.804688 C628.376323,298.533883 635.440055,301.398438 645.335938,301.398438 C649.242207,301.398438 655.557248,300.747402 664.28125,299.445312 L665.257812,318.585938 C659.13799,320.79949 650.80474,321.90625 640.257812,321.90625 C624.242107,321.90625 612.588578,317.251349 605.296875,307.941406 C598.005172,298.631464 594.359375,284.927174 594.359375,266.828125 L594.359375,125.8125 L555.492188,125.8125 L555.492188,106.671875 L594.359375,106.671875 L594.359375,52.5703125 L617.796875,52.5703125 Z M843.382812,318 C841.039051,311.359342 839.54167,301.528711 838.890625,288.507812 C830.687459,299.184949 820.238345,307.420544 807.542969,313.214844 C794.847593,319.009144 781.403717,321.90625 767.210938,321.90625 C746.898336,321.90625 730.459698,316.242244 717.894531,304.914062 C705.329364,293.585881 699.046875,279.263107 699.046875,261.945312 C699.046875,241.372293 707.607987,225.096414 724.730469,213.117187 C741.85295,201.137961 765.713389,195.148437 796.3125,195.148437 L838.695312,195.148437 L838.695312,171.125 C838.695312,156.020758 834.040411,144.139366 824.730469,135.480469 C815.420526,126.821571 801.846443,122.492187 784.007812,122.492187 C767.731689,122.492187 754.255262,126.658812 743.578125,134.992188 C732.900988,143.325562 727.5625,153.351504 727.5625,165.070312 L704.125,164.875 C704.125,148.078041 711.937422,133.527405 727.5625,121.222656 C743.187578,108.917907 762.393115,102.765625 785.179688,102.765625 C808.747514,102.765625 827.334567,108.657493 840.941406,120.441406 C854.548245,132.225319 861.546873,148.663957 861.9375,169.757812 L861.9375,269.757812 C861.9375,290.200623 864.085916,305.499949 868.382812,315.65625 L868.382812,318 L843.382812,318 Z M769.945312,301.203125 C785.570391,301.203125 799.535095,297.427121 811.839844,289.875 C824.144593,282.322879 833.096326,272.231834 838.695312,259.601562 L838.695312,213.117188 L796.898438,213.117188 C773.591029,213.377605 755.362045,217.641886 742.210938,225.910156 C729.05983,234.178427 722.484375,245.53899 722.484375,259.992188 C722.484375,271.841205 726.878862,281.671836 735.667969,289.484375 C744.457075,297.296914 755.882742,301.203125 769.945312,301.203125 L769.945312,301.203125 Z M946.507812,106.671875 L947.289062,142.804688 C955.231811,129.783789 965.127545,119.855503 976.976562,113.019531 C988.82558,106.18356 1001.91139,102.765625 1016.23438,102.765625 C1038.89074,102.765625 1055.75255,109.14577 1066.82031,121.90625 C1077.88808,134.66673 1083.48698,153.807164 1083.61719,179.328125 L1083.61719,318 L1060.375,318 L1060.375,179.132812 C1060.24479,160.25251 1056.24092,146.19015 1048.36328,136.945312 C1040.48564,127.700475 1027.88811,123.078125 1010.57031,123.078125 C996.117115,123.078125 983.324274,127.602819 972.191406,136.652344 C961.058538,145.701868 952.822943,157.908777 947.484375,173.273438 L947.484375,318 L924.242188,318 L924.242188,106.671875 L946.507812,106.671875 Z M1134.59375,210.382812 C1134.59375,177.30973 1141.9179,151.105565 1156.56641,131.769531 C1171.21492,112.433497 1191.10404,102.765625 1216.23438,102.765625 C1245.01056,102.765625 1266.88534,114.223844 1281.85938,137.140625 L1283.03125,106.671875 L1304.90625,106.671875 L1304.90625,313.703125 C1304.90625,340.916803 1297.28914,362.466066 1282.05469,378.351562 C1266.82024,394.237059 1246.18242,402.179688 1220.14062,402.179688 C1205.42701,402.179688 1191.3972,398.89196 1178.05078,392.316406 C1164.70436,385.740853 1154.19014,376.98443 1146.50781,366.046875 L1159.59375,351.984375 C1176.13029,372.296977 1195.79155,382.453125 1218.57812,382.453125 C1238.10947,382.453125 1253.3437,376.691464 1264.28125,365.167969 C1275.2188,353.644474 1280.88281,337.661561 1281.27344,317.21875 L1281.27344,290.65625 C1266.2994,311.489687 1244.48973,321.90625 1215.84375,321.90625 C1191.36446,321.90625 1171.7032,312.140723 1156.85938,292.609375 C1142.01555,273.078027 1134.59375,246.711104 1134.59375,213.507812 L1134.59375,210.382812 Z M1158.22656,214.484375 C1158.22656,241.437635 1163.63015,262.693933 1174.4375,278.253906 C1185.24485,293.81388 1200.47907,301.59375 1220.14062,301.59375 C1248.91681,301.59375 1269.29421,288.703254 1281.27344,262.921875 L1281.27344,164.679688 C1275.80466,151.137953 1267.92713,140.819046 1257.64062,133.722656 C1247.35412,126.626267 1234.98445,123.078125 1220.53125,123.078125 C1200.86969,123.078125 1185.57037,130.792892 1174.63281,146.222656 C1163.69526,161.652421 1158.22656,184.4061 1158.22656,214.484375 L1158.22656,214.484375 Z M1463.5,126.59375 C1458.55206,125.682287 1453.27867,125.226562 1447.67969,125.226562 C1433.09628,125.226562 1420.75917,129.295532 1410.66797,137.433594 C1400.57677,145.571655 1393.38283,157.387943 1389.08594,172.882812 L1389.08594,318 L1365.84375,318 L1365.84375,106.671875 L1388.69531,106.671875 L1389.08594,140.265625 C1401.45579,115.2655 1421.31236,102.765625 1448.65625,102.765625 C1455.1667,102.765625 1460.30988,103.611971 1464.08594,105.304688 L1463.5,126.59375 Z M1626,318 C1623.65624,311.359342 1622.15886,301.528711 1621.50781,288.507812 C1613.30465,299.184949 1602.85553,307.420544 1590.16016,313.214844 C1577.46478,319.009144 1564.0209,321.90625 1549.82812,321.90625 C1529.51552,321.90625 1513.07689,316.242244 1500.51172,304.914062 C1487.94655,293.585881 1481.66406,279.263107 1481.66406,261.945312 C1481.66406,241.372293 1490.22517,225.096414 1507.34766,213.117187 C1524.47014,201.137961 1548.33058,195.148437 1578.92969,195.148437 L1621.3125,195.148437 L1621.3125,171.125 C1621.3125,156.020758 1616.6576,144.139366 1607.34766,135.480469 C1598.03771,126.821571 1584.46363,122.492187 1566.625,122.492187 C1550.34888,122.492187 1536.87245,126.658812 1526.19531,134.992188 C1515.51818,143.325562 1510.17969,153.351504 1510.17969,165.070312 L1486.74219,164.875 C1486.74219,148.078041 1494.55461,133.527405 1510.17969,121.222656 C1525.80477,108.917907 1545.0103,102.765625 1567.79688,102.765625 C1591.3647,102.765625 1609.95175,108.657493 1623.55859,120.441406 C1637.16543,132.225319 1644.16406,148.663957 1644.55469,169.757812 L1644.55469,269.757812 C1644.55469,290.200623 1646.7031,305.499949 1651,315.65625 L1651,318 L1626,318 Z M1552.5625,301.203125 C1568.18758,301.203125 1582.15228,297.427121 1594.45703,289.875 C1606.76178,282.322879 1615.71351,272.231834 1621.3125,259.601562 L1621.3125,213.117188 L1579.51562,213.117188 C1556.20822,213.377605 1537.97923,217.641886 1524.82812,225.910156 C1511.67702,234.178427 1505.10156,245.53899 1505.10156,259.992188 C1505.10156,271.841205 1509.49605,281.671836 1518.28516,289.484375 C1527.07426,297.296914 1538.49993,301.203125 1552.5625,301.203125 L1552.5625,301.203125 Z M1728.14844,106.671875 L1728.92969,141.046875 C1736.74223,128.286395 1746.50775,118.716178 1758.22656,112.335938 C1769.94537,105.955697 1782.96607,102.765625 1797.28906,102.765625 C1830.62256,102.765625 1851.78121,116.437363 1860.76562,143.78125 C1868.31775,130.630143 1878.40879,120.506546 1891.03906,113.410156 C1903.66933,106.313767 1917.60149,102.765625 1932.83594,102.765625 C1978.14866,102.765625 2001.26041,127.504961 2002.17188,176.984375 L2002.17188,318 L1978.73438,318 L1978.73438,178.742188 C1978.60417,159.861885 1974.5352,145.864629 1966.52734,136.75 C1958.51949,127.635371 1945.46624,123.078125 1927.36719,123.078125 C1910.57023,123.338543 1896.37766,128.774687 1884.78906,139.386719 C1873.20046,149.998751 1866.75521,162.921799 1865.45312,178.15625 L1865.45312,318 L1842.01562,318 L1842.01562,176.984375 C1841.88542,158.885326 1837.62114,145.376347 1829.22266,136.457031 C1820.82418,127.537716 1807.90113,123.078125 1790.45312,123.078125 C1775.73951,123.078125 1763.10943,127.277302 1752.5625,135.675781 C1742.01557,144.074261 1734.20315,156.541584 1729.125,173.078125 L1729.125,318 L1705.6875,318 L1705.6875,106.671875 L1728.14844,106.671875 Z" id="tangram" fill="#5A6378" sketch:type="MSShapeGroup"></path>
    </g>
</svg>
